<svg xmlns="http://www.w3.org/2000/svg" viewBox="0 0 30 25" width="480" height="400" shape-rendering="crispEdges">
<rect x="10" y="0" width="10" height="1" fill="#2fbf9a"/>
<rect x="8" y="1" width="3" height="1" fill="#2fbf9a"/>
<rect x="11" y="1" width="8" height="1" fill="#0a231e"/>
<rect x="19" y="1" width="3" height="1" fill="#2fbf9a"/>
<rect x="7" y="2" width="2" height="1" fill="#2fbf9a"/>
<rect x="9" y="2" width="2" height="1" fill="#0a231e"/>
<rect x="11" y="2" width="1" height="1" fill="#133c32"/>
<rect x="12" y="2" width="6" height="1" fill="#235e4c"/>
<rect x="18" y="2" width="1" height="1" fill="#133c32"/>
<rect x="19" y="2" width="2" height="1" fill="#0a231e"/>
<rect x="21" y="2" width="2" height="1" fill="#2fbf9a"/>
<rect x="6" y="3" width="2" height="1" fill="#2fbf9a"/>
<rect x="8" y="3" width="1" height="1" fill="#0a231e"/>
<rect x="9" y="3" width="1" height="1" fill="#133c32"/>
<rect x="10" y="3" width="2" height="1" fill="#235e4c"/>
<rect x="12" y="3" width="2" height="1" fill="#133c32"/>
<rect x="14" y="3" width="1" height="1" fill="#bff5e6"/>
<rect x="15" y="3" width="1" height="1" fill="#04110d"/>
<rect x="16" y="3" width="3" height="1" fill="#133c32"/>
<rect x="19" y="3" width="1" height="1" fill="#235e4c"/>
<rect x="20" y="3" width="1" height="1" fill="#133c32"/>
<rect x="21" y="3" width="1" height="1" fill="#0a231e"/>
<rect x="22" y="3" width="2" height="1" fill="#2fbf9a"/>
<rect x="5" y="4" width="2" height="1" fill="#2fbf9a"/>
<rect x="7" y="4" width="1" height="1" fill="#0a231e"/>
<rect x="8" y="4" width="1" height="1" fill="#133c32"/>
<rect x="9" y="4" width="1" height="1" fill="#bff5e6"/>
<rect x="10" y="4" width="1" height="1" fill="#04110d"/>
<rect x="11" y="4" width="8" height="1" fill="#133c32"/>
<rect x="19" y="4" width="1" height="1" fill="#bff5e6"/>
<rect x="20" y="4" width="1" height="1" fill="#04110d"/>
<rect x="21" y="4" width="1" height="1" fill="#133c32"/>
<rect x="22" y="4" width="1" height="1" fill="#0a231e"/>
<rect x="23" y="4" width="2" height="1" fill="#2fbf9a"/>
<rect x="5" y="5" width="1" height="1" fill="#2fbf9a"/>
<rect x="6" y="5" width="1" height="1" fill="#0a231e"/>
<rect x="7" y="5" width="1" height="1" fill="#133c32"/>
<rect x="8" y="5" width="1" height="1" fill="#235e4c"/>
<rect x="9" y="5" width="12" height="1" fill="#133c32"/>
<rect x="21" y="5" width="1" height="1" fill="#235e4c"/>
<rect x="22" y="5" width="1" height="1" fill="#133c32"/>
<rect x="23" y="5" width="1" height="1" fill="#0a231e"/>
<rect x="24" y="5" width="1" height="1" fill="#2fbf9a"/>
<rect x="4" y="6" width="2" height="1" fill="#2fbf9a"/>
<rect x="6" y="6" width="1" height="1" fill="#0a231e"/>
<rect x="7" y="6" width="4" height="1" fill="#133c32"/>
<rect x="11" y="6" width="8" height="1" fill="#bff5e6"/>
<rect x="19" y="6" width="4" height="1" fill="#133c32"/>
<rect x="23" y="6" width="1" height="1" fill="#0a231e"/>
<rect x="24" y="6" width="2" height="1" fill="#2fbf9a"/>
<rect x="4" y="7" width="1" height="1" fill="#2fbf9a"/>
<rect x="5" y="7" width="1" height="1" fill="#0a231e"/>
<rect x="6" y="7" width="1" height="1" fill="#133c32"/>
<rect x="7" y="7" width="1" height="1" fill="#235e4c"/>
<rect x="8" y="7" width="1" height="1" fill="#133c32"/>
<rect x="9" y="7" width="3" height="1" fill="#bff5e6"/>
<rect x="12" y="7" width="6" height="1" fill="#2fbf9a"/>
<rect x="18" y="7" width="3" height="1" fill="#bff5e6"/>
<rect x="21" y="7" width="1" height="1" fill="#133c32"/>
<rect x="22" y="7" width="1" height="1" fill="#235e4c"/>
<rect x="23" y="7" width="1" height="1" fill="#133c32"/>
<rect x="24" y="7" width="1" height="1" fill="#0a231e"/>
<rect x="25" y="7" width="1" height="1" fill="#2fbf9a"/>
<rect x="4" y="8" width="1" height="1" fill="#2fbf9a"/>
<rect x="5" y="8" width="1" height="1" fill="#0a231e"/>
<rect x="6" y="8" width="3" height="1" fill="#133c32"/>
<rect x="9" y="8" width="1" height="1" fill="#bff5e6"/>
<rect x="10" y="8" width="2" height="1" fill="#2fbf9a"/>
<rect x="12" y="8" width="6" height="1" fill="#54dcb6"/>
<rect x="18" y="8" width="2" height="1" fill="#2fbf9a"/>
<rect x="20" y="8" width="1" height="1" fill="#bff5e6"/>
<rect x="21" y="8" width="3" height="1" fill="#133c32"/>
<rect x="24" y="8" width="1" height="1" fill="#0a231e"/>
<rect x="25" y="8" width="1" height="1" fill="#2fbf9a"/>
<rect x="4" y="9" width="1" height="1" fill="#2fbf9a"/>
<rect x="5" y="9" width="1" height="1" fill="#0a231e"/>
<rect x="6" y="9" width="2" height="1" fill="#133c32"/>
<rect x="8" y="9" width="1" height="1" fill="#bff5e6"/>
<rect x="9" y="9" width="1" height="1" fill="#2fbf9a"/>
<rect x="10" y="9" width="4" height="1" fill="#54dcb6"/>
<rect x="14" y="9" width="2" height="1" fill="#04110d"/>
<rect x="16" y="9" width="4" height="1" fill="#54dcb6"/>
<rect x="20" y="9" width="1" height="1" fill="#2fbf9a"/>
<rect x="21" y="9" width="1" height="1" fill="#bff5e6"/>
<rect x="22" y="9" width="2" height="1" fill="#133c32"/>
<rect x="24" y="9" width="1" height="1" fill="#0a231e"/>
<rect x="25" y="9" width="1" height="1" fill="#2fbf9a"/>
<rect x="4" y="10" width="1" height="1" fill="#2fbf9a"/>
<rect x="5" y="10" width="1" height="1" fill="#0a231e"/>
<rect x="6" y="10" width="2" height="1" fill="#133c32"/>
<rect x="8" y="10" width="1" height="1" fill="#bff5e6"/>
<rect x="9" y="10" width="1" height="1" fill="#2fbf9a"/>
<rect x="10" y="10" width="1" height="1" fill="#54dcb6"/>
<rect x="11" y="10" width="1" height="1" fill="#ebfff8"/>
<rect x="12" y="10" width="2" height="1" fill="#54dcb6"/>
<rect x="14" y="10" width="2" height="1" fill="#04110d"/>
<rect x="16" y="10" width="4" height="1" fill="#54dcb6"/>
<rect x="20" y="10" width="1" height="1" fill="#2fbf9a"/>
<rect x="21" y="10" width="1" height="1" fill="#bff5e6"/>
<rect x="22" y="10" width="2" height="1" fill="#133c32"/>
<rect x="24" y="10" width="1" height="1" fill="#0a231e"/>
<rect x="25" y="10" width="1" height="1" fill="#2fbf9a"/>
<rect x="4" y="11" width="1" height="1" fill="#2fbf9a"/>
<rect x="5" y="11" width="1" height="1" fill="#0a231e"/>
<rect x="6" y="11" width="2" height="1" fill="#133c32"/>
<rect x="8" y="11" width="1" height="1" fill="#bff5e6"/>
<rect x="9" y="11" width="1" height="1" fill="#2fbf9a"/>
<rect x="10" y="11" width="4" height="1" fill="#54dcb6"/>
<rect x="14" y="11" width="2" height="1" fill="#04110d"/>
<rect x="16" y="11" width="4" height="1" fill="#54dcb6"/>
<rect x="20" y="11" width="1" height="1" fill="#2fbf9a"/>
<rect x="21" y="11" width="1" height="1" fill="#bff5e6"/>
<rect x="22" y="11" width="2" height="1" fill="#133c32"/>
<rect x="24" y="11" width="1" height="1" fill="#0a231e"/>
<rect x="25" y="11" width="1" height="1" fill="#2fbf9a"/>
<rect x="4" y="12" width="1" height="1" fill="#2fbf9a"/>
<rect x="5" y="12" width="1" height="1" fill="#0a231e"/>
<rect x="6" y="12" width="2" height="1" fill="#133c32"/>
<rect x="8" y="12" width="1" height="1" fill="#bff5e6"/>
<rect x="9" y="12" width="1" height="1" fill="#2fbf9a"/>
<rect x="10" y="12" width="4" height="1" fill="#54dcb6"/>
<rect x="14" y="12" width="2" height="1" fill="#04110d"/>
<rect x="16" y="12" width="4" height="1" fill="#54dcb6"/>
<rect x="20" y="12" width="1" height="1" fill="#2fbf9a"/>
<rect x="21" y="12" width="1" height="1" fill="#bff5e6"/>
<rect x="22" y="12" width="2" height="1" fill="#133c32"/>
<rect x="24" y="12" width="1" height="1" fill="#0a231e"/>
<rect x="25" y="12" width="1" height="1" fill="#2fbf9a"/>
<rect x="4" y="13" width="1" height="1" fill="#2fbf9a"/>
<rect x="5" y="13" width="1" height="1" fill="#0a231e"/>
<rect x="6" y="13" width="3" height="1" fill="#133c32"/>
<rect x="9" y="13" width="1" height="1" fill="#bff5e6"/>
<rect x="10" y="13" width="2" height="1" fill="#2fbf9a"/>
<rect x="12" y="13" width="6" height="1" fill="#54dcb6"/>
<rect x="18" y="13" width="2" height="1" fill="#2fbf9a"/>
<rect x="20" y="13" width="1" height="1" fill="#bff5e6"/>
<rect x="21" y="13" width="3" height="1" fill="#133c32"/>
<rect x="24" y="13" width="1" height="1" fill="#0a231e"/>
<rect x="25" y="13" width="1" height="1" fill="#2fbf9a"/>
<rect x="4" y="14" width="1" height="1" fill="#2fbf9a"/>
<rect x="5" y="14" width="1" height="1" fill="#0a231e"/>
<rect x="6" y="14" width="1" height="1" fill="#133c32"/>
<rect x="7" y="14" width="2" height="1" fill="#f0828c"/>
<rect x="9" y="14" width="1" height="1" fill="#133c32"/>
<rect x="10" y="14" width="3" height="1" fill="#bff5e6"/>
<rect x="13" y="14" width="4" height="1" fill="#2fbf9a"/>
<rect x="17" y="14" width="3" height="1" fill="#bff5e6"/>
<rect x="20" y="14" width="1" height="1" fill="#133c32"/>
<rect x="21" y="14" width="2" height="1" fill="#f0828c"/>
<rect x="23" y="14" width="1" height="1" fill="#133c32"/>
<rect x="24" y="14" width="1" height="1" fill="#0a231e"/>
<rect x="25" y="14" width="1" height="1" fill="#2fbf9a"/>
<rect x="4" y="15" width="2" height="1" fill="#2fbf9a"/>
<rect x="6" y="15" width="1" height="1" fill="#0a231e"/>
<rect x="7" y="15" width="4" height="1" fill="#133c32"/>
<rect x="11" y="15" width="8" height="1" fill="#bff5e6"/>
<rect x="19" y="15" width="4" height="1" fill="#133c32"/>
<rect x="23" y="15" width="1" height="1" fill="#0a231e"/>
<rect x="24" y="15" width="2" height="1" fill="#2fbf9a"/>
<rect x="5" y="16" width="1" height="1" fill="#2fbf9a"/>
<rect x="6" y="16" width="1" height="1" fill="#0a231e"/>
<rect x="7" y="16" width="16" height="1" fill="#133c32"/>
<rect x="23" y="16" width="1" height="1" fill="#0a231e"/>
<rect x="24" y="16" width="1" height="1" fill="#2fbf9a"/>
<rect x="5" y="17" width="2" height="1" fill="#2fbf9a"/>
<rect x="7" y="17" width="1" height="1" fill="#0a231e"/>
<rect x="8" y="17" width="14" height="1" fill="#133c32"/>
<rect x="22" y="17" width="1" height="1" fill="#0a231e"/>
<rect x="23" y="17" width="2" height="1" fill="#2fbf9a"/>
<rect x="6" y="18" width="1" height="1" fill="#2fbf9a"/>
<rect x="7" y="18" width="1" height="1" fill="#0a231e"/>
<rect x="8" y="18" width="2" height="1" fill="#133c32"/>
<rect x="10" y="18" width="1" height="1" fill="#0a231e"/>
<rect x="11" y="18" width="2" height="1" fill="#133c32"/>
<rect x="13" y="18" width="1" height="1" fill="#0a231e"/>
<rect x="14" y="18" width="2" height="1" fill="#133c32"/>
<rect x="16" y="18" width="1" height="1" fill="#0a231e"/>
<rect x="17" y="18" width="2" height="1" fill="#133c32"/>
<rect x="19" y="18" width="1" height="1" fill="#0a231e"/>
<rect x="20" y="18" width="2" height="1" fill="#133c32"/>
<rect x="22" y="18" width="1" height="1" fill="#0a231e"/>
<rect x="23" y="18" width="1" height="1" fill="#2fbf9a"/>
<rect x="6" y="19" width="2" height="1" fill="#2fbf9a"/>
<rect x="8" y="19" width="1" height="1" fill="#0a231e"/>
<rect x="9" y="19" width="1" height="1" fill="#133c32"/>
<rect x="10" y="19" width="1" height="1" fill="#2fbf9a"/>
<rect x="11" y="19" width="1" height="1" fill="#0a231e"/>
<rect x="12" y="19" width="1" height="1" fill="#133c32"/>
<rect x="13" y="19" width="1" height="1" fill="#2fbf9a"/>
<rect x="14" y="19" width="1" height="1" fill="#0a231e"/>
<rect x="15" y="19" width="1" height="1" fill="#133c32"/>
<rect x="16" y="19" width="1" height="1" fill="#2fbf9a"/>
<rect x="17" y="19" width="1" height="1" fill="#0a231e"/>
<rect x="18" y="19" width="1" height="1" fill="#133c32"/>
<rect x="19" y="19" width="1" height="1" fill="#2fbf9a"/>
<rect x="20" y="19" width="1" height="1" fill="#0a231e"/>
<rect x="21" y="19" width="1" height="1" fill="#133c32"/>
<rect x="22" y="19" width="2" height="1" fill="#2fbf9a"/>
<rect x="7" y="20" width="1" height="1" fill="#2fbf9a"/>
<rect x="8" y="20" width="1" height="1" fill="#0a231e"/>
<rect x="9" y="20" width="1" height="1" fill="#133c32"/>
<rect x="10" y="20" width="1" height="1" fill="#2fbf9a"/>
<rect x="11" y="20" width="1" height="1" fill="#0a231e"/>
<rect x="12" y="20" width="1" height="1" fill="#133c32"/>
<rect x="13" y="20" width="1" height="1" fill="#2fbf9a"/>
<rect x="14" y="20" width="1" height="1" fill="#0a231e"/>
<rect x="15" y="20" width="1" height="1" fill="#133c32"/>
<rect x="16" y="20" width="1" height="1" fill="#2fbf9a"/>
<rect x="17" y="20" width="1" height="1" fill="#0a231e"/>
<rect x="18" y="20" width="1" height="1" fill="#133c32"/>
<rect x="19" y="20" width="1" height="1" fill="#2fbf9a"/>
<rect x="20" y="20" width="1" height="1" fill="#0a231e"/>
<rect x="21" y="20" width="1" height="1" fill="#133c32"/>
<rect x="22" y="20" width="1" height="1" fill="#2fbf9a"/>
<rect x="7" y="21" width="1" height="1" fill="#2fbf9a"/>
<rect x="8" y="21" width="1" height="1" fill="#0a231e"/>
<rect x="9" y="21" width="2" height="1" fill="#2fbf9a"/>
<rect x="11" y="21" width="1" height="1" fill="#0a231e"/>
<rect x="12" y="21" width="1" height="1" fill="#133c32"/>
<rect x="13" y="21" width="1" height="1" fill="#2fbf9a"/>
<rect x="14" y="21" width="1" height="1" fill="#0a231e"/>
<rect x="15" y="21" width="1" height="1" fill="#133c32"/>
<rect x="16" y="21" width="1" height="1" fill="#2fbf9a"/>
<rect x="17" y="21" width="1" height="1" fill="#0a231e"/>
<rect x="18" y="21" width="1" height="1" fill="#133c32"/>
<rect x="19" y="21" width="2" height="1" fill="#2fbf9a"/>
<rect x="21" y="21" width="1" height="1" fill="#0a231e"/>
<rect x="22" y="21" width="1" height="1" fill="#2fbf9a"/>
<rect x="7" y="22" width="4" height="1" fill="#2fbf9a"/>
<rect x="11" y="22" width="1" height="1" fill="#0a231e"/>
<rect x="12" y="22" width="2" height="1" fill="#2fbf9a"/>
<rect x="14" y="22" width="1" height="1" fill="#0a231e"/>
<rect x="15" y="22" width="1" height="1" fill="#133c32"/>
<rect x="16" y="22" width="2" height="1" fill="#2fbf9a"/>
<rect x="18" y="22" width="1" height="1" fill="#0a231e"/>
<rect x="19" y="22" width="4" height="1" fill="#2fbf9a"/>
<rect x="10" y="23" width="4" height="1" fill="#2fbf9a"/>
<rect x="14" y="23" width="2" height="1" fill="#0a231e"/>
<rect x="16" y="23" width="4" height="1" fill="#2fbf9a"/>
<rect x="13" y="24" width="4" height="1" fill="#2fbf9a"/>
</svg>
